<?xml version="1.0" encoding="UTF-8"?>
<!DOCTYPE svg PUBLIC "-//W3C//DTD SVG 1.1//EN" "http://www.w3.org/Graphics/SVG/1.1/DTD/svg11.dtd">
<svg version="1.2" width="62mm" height="64mm" viewBox="8900 6200 6200 6400" preserveAspectRatio="xMidYMid" fill-rule="evenodd" stroke-width="28.222" stroke-linejoin="round" xmlns="http://www.w3.org/2000/svg" xmlns:ooo="http://xml.openoffice.org/svg/export" xmlns:xlink="http://www.w3.org/1999/xlink" xmlns:presentation="http://sun.com/xmlns/staroffice/presentation" xmlns:smil="http://www.w3.org/2001/SMIL20/" xmlns:anim="urn:oasis:names:tc:opendocument:xmlns:animation:1.0" xml:space="preserve">
 <defs class="ClipPathGroup">
  <clipPath id="presentation_clip_path" clipPathUnits="userSpaceOnUse">
   <rect x="8900" y="6200" width="6200" height="6400"/>
  </clipPath>
  <clipPath id="presentation_clip_path_shrink" clipPathUnits="userSpaceOnUse">
   <rect x="8906" y="6206" width="6188" height="6388"/>
  </clipPath>
 </defs>
 <defs class="TextShapeIndex">
  <g ooo:slide="id1" ooo:id-list="id3 id4 id5 id6 id7 id8 id9 id10 id11 id12 id13"/>
 </defs>
 <defs class="EmbeddedBulletChars">
  <g id="bullet-char-template-57356" transform="scale(0.00048828125,-0.00048828125)">
   <path d="M 580,1141 L 1163,571 580,0 -4,571 580,1141 Z"/>
  </g>
  <g id="bullet-char-template-57354" transform="scale(0.00048828125,-0.00048828125)">
   <path d="M 8,1128 L 1137,1128 1137,0 8,0 8,1128 Z"/>
  </g>
  <g id="bullet-char-template-10146" transform="scale(0.00048828125,-0.00048828125)">
   <path d="M 174,0 L 602,739 174,1481 1456,739 174,0 Z M 1358,739 L 309,1346 659,739 1358,739 Z"/>
  </g>
  <g id="bullet-char-template-10132" transform="scale(0.00048828125,-0.00048828125)">
   <path d="M 2015,739 L 1276,0 717,0 1260,543 174,543 174,936 1260,936 717,1481 1274,1481 2015,739 Z"/>
  </g>
  <g id="bullet-char-template-10007" transform="scale(0.00048828125,-0.00048828125)">
   <path d="M 0,-2 C -7,14 -16,27 -25,37 L 356,567 C 262,823 215,952 215,954 215,979 228,992 255,992 264,992 276,990 289,987 310,991 331,999 354,1012 L 381,999 492,748 772,1049 836,1024 860,1049 C 881,1039 901,1025 922,1006 886,937 835,863 770,784 769,783 710,716 594,584 L 774,223 C 774,196 753,168 711,139 L 727,119 C 717,90 699,76 672,76 641,76 570,178 457,381 L 164,-76 C 142,-110 111,-127 72,-127 30,-127 9,-110 8,-76 1,-67 -2,-52 -2,-32 -2,-23 -1,-13 0,-2 Z"/>
  </g>
  <g id="bullet-char-template-10004" transform="scale(0.00048828125,-0.00048828125)">
   <path d="M 285,-33 C 182,-33 111,30 74,156 52,228 41,333 41,471 41,549 55,616 82,672 116,743 169,778 240,778 293,778 328,747 346,684 L 369,508 C 377,444 397,411 428,410 L 1163,1116 C 1174,1127 1196,1133 1229,1133 1271,1133 1292,1118 1292,1087 L 1292,965 C 1292,929 1282,901 1262,881 L 442,47 C 390,-6 338,-33 285,-33 Z"/>
  </g>
  <g id="bullet-char-template-9679" transform="scale(0.00048828125,-0.00048828125)">
   <path d="M 813,0 C 632,0 489,54 383,161 276,268 223,411 223,592 223,773 276,916 383,1023 489,1130 632,1184 813,1184 992,1184 1136,1130 1245,1023 1353,916 1407,772 1407,592 1407,412 1353,268 1245,161 1136,54 992,0 813,0 Z"/>
  </g>
  <g id="bullet-char-template-8226" transform="scale(0.00048828125,-0.00048828125)">
   <path d="M 346,457 C 273,457 209,483 155,535 101,586 74,649 74,723 74,796 101,859 155,911 209,963 273,989 346,989 419,989 480,963 531,910 582,859 608,796 608,723 608,648 583,586 532,535 482,483 420,457 346,457 Z"/>
  </g>
  <g id="bullet-char-template-8211" transform="scale(0.00048828125,-0.00048828125)">
   <path d="M -4,459 L 1135,459 1135,606 -4,606 -4,459 Z"/>
  </g>
  <g id="bullet-char-template-61548" transform="scale(0.00048828125,-0.00048828125)">
   <path d="M 173,740 C 173,903 231,1043 346,1159 462,1274 601,1332 765,1332 928,1332 1067,1274 1183,1159 1299,1043 1357,903 1357,740 1357,577 1299,437 1183,322 1067,206 928,148 765,148 601,148 462,206 346,322 231,437 173,577 173,740 Z"/>
  </g>
 </defs>
 <defs class="TextEmbeddedBitmaps"/>
 <g class="SlideGroup">
  <g>
   <g id="container-id1">
    <g id="id1" class="Slide" clip-path="url(#presentation_clip_path)">
     <g class="Page">
      <g class="com.sun.star.drawing.CustomShape">
       <g id="id3">
        <rect class="BoundingBox" stroke="none" fill="none" x="8999" y="9391" width="2853" height="3155"/>
        <path fill="none" stroke="rgb(52,101,164)" d="M 10425,9468 C 11233,9733 11850,10586 11850,11436 11850,12286 11233,12733 10425,12468 9617,12203 9000,11350 9000,10500 9000,9650 9617,9203 10425,9468 Z"/>
       </g>
      </g>
      <g class="com.sun.star.drawing.CustomShape">
       <g id="id4">
        <rect class="BoundingBox" stroke="none" fill="none" x="12099" y="6291" width="2853" height="3155"/>
        <path fill="none" stroke="rgb(52,101,164)" d="M 13525,6368 C 14333,6633 14950,7486 14950,8336 14950,9186 14333,9633 13525,9368 12717,9103 12100,8250 12100,7400 12100,6550 12717,6103 13525,6368 Z"/>
       </g>
      </g>
      <g class="com.sun.star.drawing.ConnectorShape">
       <g id="id5">
        <rect class="BoundingBox" stroke="none" fill="none" x="9416" y="6475" width="3103" height="3103"/>
        <path fill="none" stroke="rgb(0,0,0)" d="M 9417,9576 L 12517,6476"/>
       </g>
      </g>
      <g class="com.sun.star.drawing.ConnectorShape">
       <g id="id6">
        <rect class="BoundingBox" stroke="none" fill="none" x="10424" y="6367" width="3103" height="3103"/>
        <path fill="none" stroke="rgb(0,0,0)" d="M 10425,9468 L 13525,6368"/>
       </g>
      </g>
      <g class="com.sun.star.drawing.ConnectorShape">
       <g id="id7">
        <rect class="BoundingBox" stroke="none" fill="none" x="11432" y="7137" width="3103" height="3103"/>
        <path fill="none" stroke="rgb(0,0,0)" d="M 11433,10238 L 14533,7138"/>
       </g>
      </g>
      <g class="com.sun.star.drawing.ConnectorShape">
       <g id="id8">
        <rect class="BoundingBox" stroke="none" fill="none" x="11849" y="8335" width="3103" height="3103"/>
        <path fill="none" stroke="rgb(0,0,0)" d="M 11850,11436 L 14950,8336"/>
       </g>
      </g>
      <g class="com.sun.star.drawing.ConnectorShape">
       <g id="id9">
        <rect class="BoundingBox" stroke="none" fill="none" x="11432" y="9259" width="3103" height="3103"/>
        <path fill="none" stroke="rgb(0,0,0)" d="M 11433,12360 L 14533,9260"/>
       </g>
      </g>
      <g class="com.sun.star.drawing.ConnectorShape">
       <g id="id10">
        <rect class="BoundingBox" stroke="none" fill="none" x="10424" y="9368" width="3103" height="3103"/>
        <path fill="none" stroke="rgb(0,0,0)" d="M 10425,12469 L 10463,12431"/>
        <path fill="none" stroke="rgb(0,0,0)" d="M 10500,12394 L 10538,12356"/>
        <path fill="none" stroke="rgb(0,0,0)" d="M 10575,12319 L 10613,12281"/>
        <path fill="none" stroke="rgb(0,0,0)" d="M 10650,12244 L 10688,12206"/>
        <path fill="none" stroke="rgb(0,0,0)" d="M 10725,12169 L 10763,12131"/>
        <path fill="none" stroke="rgb(0,0,0)" d="M 10800,12094 L 10838,12056"/>
        <path fill="none" stroke="rgb(0,0,0)" d="M 10875,12019 L 10913,11981"/>
        <path fill="none" stroke="rgb(0,0,0)" d="M 10951,11943 L 10988,11906"/>
        <path fill="none" stroke="rgb(0,0,0)" d="M 11026,11868 L 11063,11831"/>
        <path fill="none" stroke="rgb(0,0,0)" d="M 11101,11793 L 11138,11756"/>
        <path fill="none" stroke="rgb(0,0,0)" d="M 11176,11718 L 11213,11681"/>
        <path fill="none" stroke="rgb(0,0,0)" d="M 11251,11643 L 11288,11606"/>
        <path fill="none" stroke="rgb(0,0,0)" d="M 11326,11568 L 11364,11530"/>
        <path fill="none" stroke="rgb(0,0,0)" d="M 11401,11493 L 11439,11455"/>
        <path fill="none" stroke="rgb(0,0,0)" d="M 11476,11418 L 11514,11380"/>
        <path fill="none" stroke="rgb(0,0,0)" d="M 11551,11343 L 11589,11305"/>
        <path fill="none" stroke="rgb(0,0,0)" d="M 11626,11268 L 11664,11230"/>
        <path fill="none" stroke="rgb(0,0,0)" d="M 11701,11193 L 11739,11155"/>
        <path fill="none" stroke="rgb(0,0,0)" d="M 11776,11118 L 11814,11080"/>
        <path fill="none" stroke="rgb(0,0,0)" d="M 11852,11042 L 11889,11005"/>
        <path fill="none" stroke="rgb(0,0,0)" d="M 11927,10967 L 11964,10930"/>
        <path fill="none" stroke="rgb(0,0,0)" d="M 12002,10892 L 12039,10855"/>
        <path fill="none" stroke="rgb(0,0,0)" d="M 12077,10817 L 12114,10780"/>
        <path fill="none" stroke="rgb(0,0,0)" d="M 12152,10742 L 12189,10705"/>
        <path fill="none" stroke="rgb(0,0,0)" d="M 12227,10667 L 12265,10629"/>
        <path fill="none" stroke="rgb(0,0,0)" d="M 12302,10592 L 12340,10554"/>
        <path fill="none" stroke="rgb(0,0,0)" d="M 12377,10517 L 12415,10479"/>
        <path fill="none" stroke="rgb(0,0,0)" d="M 12452,10442 L 12490,10404"/>
        <path fill="none" stroke="rgb(0,0,0)" d="M 12527,10367 L 12565,10329"/>
        <path fill="none" stroke="rgb(0,0,0)" d="M 12602,10292 L 12640,10254"/>
        <path fill="none" stroke="rgb(0,0,0)" d="M 12677,10217 L 12715,10179"/>
        <path fill="none" stroke="rgb(0,0,0)" d="M 12753,10141 L 12790,10104"/>
        <path fill="none" stroke="rgb(0,0,0)" d="M 12828,10066 L 12865,10029"/>
        <path fill="none" stroke="rgb(0,0,0)" d="M 12903,9991 L 12940,9954"/>
        <path fill="none" stroke="rgb(0,0,0)" d="M 12978,9916 L 13015,9879"/>
        <path fill="none" stroke="rgb(0,0,0)" d="M 13053,9841 L 13090,9804"/>
        <path fill="none" stroke="rgb(0,0,0)" d="M 13128,9766 L 13166,9728"/>
        <path fill="none" stroke="rgb(0,0,0)" d="M 13203,9691 L 13241,9653"/>
        <path fill="none" stroke="rgb(0,0,0)" d="M 13278,9616 L 13316,9578"/>
        <path fill="none" stroke="rgb(0,0,0)" d="M 13353,9541 L 13391,9503"/>
        <path fill="none" stroke="rgb(0,0,0)" d="M 13428,9466 L 13466,9428"/>
        <path fill="none" stroke="rgb(0,0,0)" d="M 13503,9391 L 13525,9369"/>
       </g>
      </g>
      <g class="com.sun.star.drawing.ConnectorShape">
       <g id="id11">
        <rect class="BoundingBox" stroke="none" fill="none" x="9416" y="8597" width="3103" height="3103"/>
        <path fill="none" stroke="rgb(0,0,0)" d="M 9417,11698 L 9455,11660"/>
        <path fill="none" stroke="rgb(0,0,0)" d="M 9492,11623 L 9530,11585"/>
        <path fill="none" stroke="rgb(0,0,0)" d="M 9567,11548 L 9605,11510"/>
        <path fill="none" stroke="rgb(0,0,0)" d="M 9642,11473 L 9680,11435"/>
        <path fill="none" stroke="rgb(0,0,0)" d="M 9717,11398 L 9755,11360"/>
        <path fill="none" stroke="rgb(0,0,0)" d="M 9792,11323 L 9830,11285"/>
        <path fill="none" stroke="rgb(0,0,0)" d="M 9867,11248 L 9905,11210"/>
        <path fill="none" stroke="rgb(0,0,0)" d="M 9943,11172 L 9980,11135"/>
        <path fill="none" stroke="rgb(0,0,0)" d="M 10018,11097 L 10055,11060"/>
        <path fill="none" stroke="rgb(0,0,0)" d="M 10093,11022 L 10130,10985"/>
        <path fill="none" stroke="rgb(0,0,0)" d="M 10168,10947 L 10205,10910"/>
        <path fill="none" stroke="rgb(0,0,0)" d="M 10243,10872 L 10280,10835"/>
        <path fill="none" stroke="rgb(0,0,0)" d="M 10318,10797 L 10356,10759"/>
        <path fill="none" stroke="rgb(0,0,0)" d="M 10393,10722 L 10431,10684"/>
        <path fill="none" stroke="rgb(0,0,0)" d="M 10468,10647 L 10506,10609"/>
        <path fill="none" stroke="rgb(0,0,0)" d="M 10543,10572 L 10581,10534"/>
        <path fill="none" stroke="rgb(0,0,0)" d="M 10618,10497 L 10656,10459"/>
        <path fill="none" stroke="rgb(0,0,0)" d="M 10693,10422 L 10731,10384"/>
        <path fill="none" stroke="rgb(0,0,0)" d="M 10768,10347 L 10806,10309"/>
        <path fill="none" stroke="rgb(0,0,0)" d="M 10844,10271 L 10881,10234"/>
        <path fill="none" stroke="rgb(0,0,0)" d="M 10919,10196 L 10956,10159"/>
        <path fill="none" stroke="rgb(0,0,0)" d="M 10994,10121 L 11031,10084"/>
        <path fill="none" stroke="rgb(0,0,0)" d="M 11069,10046 L 11106,10009"/>
        <path fill="none" stroke="rgb(0,0,0)" d="M 11144,9971 L 11181,9934"/>
        <path fill="none" stroke="rgb(0,0,0)" d="M 11219,9896 L 11257,9858"/>
        <path fill="none" stroke="rgb(0,0,0)" d="M 11294,9821 L 11332,9783"/>
        <path fill="none" stroke="rgb(0,0,0)" d="M 11369,9746 L 11407,9708"/>
        <path fill="none" stroke="rgb(0,0,0)" d="M 11444,9671 L 11482,9633"/>
        <path fill="none" stroke="rgb(0,0,0)" d="M 11519,9596 L 11557,9558"/>
        <path fill="none" stroke="rgb(0,0,0)" d="M 11594,9521 L 11632,9483"/>
        <path fill="none" stroke="rgb(0,0,0)" d="M 11669,9446 L 11707,9408"/>
        <path fill="none" stroke="rgb(0,0,0)" d="M 11745,9370 L 11782,9333"/>
        <path fill="none" stroke="rgb(0,0,0)" d="M 11820,9295 L 11857,9258"/>
        <path fill="none" stroke="rgb(0,0,0)" d="M 11895,9220 L 11932,9183"/>
        <path fill="none" stroke="rgb(0,0,0)" d="M 11970,9145 L 12007,9108"/>
        <path fill="none" stroke="rgb(0,0,0)" d="M 12045,9070 L 12082,9033"/>
        <path fill="none" stroke="rgb(0,0,0)" d="M 12120,8995 L 12158,8957"/>
        <path fill="none" stroke="rgb(0,0,0)" d="M 12195,8920 L 12233,8882"/>
        <path fill="none" stroke="rgb(0,0,0)" d="M 12270,8845 L 12308,8807"/>
        <path fill="none" stroke="rgb(0,0,0)" d="M 12345,8770 L 12383,8732"/>
        <path fill="none" stroke="rgb(0,0,0)" d="M 12420,8695 L 12458,8657"/>
        <path fill="none" stroke="rgb(0,0,0)" d="M 12495,8620 L 12517,8598"/>
       </g>
      </g>
      <g class="com.sun.star.drawing.ConnectorShape">
       <g id="id12">
        <rect class="BoundingBox" stroke="none" fill="none" x="8999" y="7399" width="3103" height="3103"/>
        <path fill="none" stroke="rgb(0,0,0)" d="M 9000,10500 L 9038,10462"/>
        <path fill="none" stroke="rgb(0,0,0)" d="M 9075,10425 L 9113,10387"/>
        <path fill="none" stroke="rgb(0,0,0)" d="M 9150,10350 L 9188,10312"/>
        <path fill="none" stroke="rgb(0,0,0)" d="M 9225,10275 L 9263,10237"/>
        <path fill="none" stroke="rgb(0,0,0)" d="M 9300,10200 L 9338,10162"/>
        <path fill="none" stroke="rgb(0,0,0)" d="M 9375,10125 L 9413,10087"/>
        <path fill="none" stroke="rgb(0,0,0)" d="M 9450,10050 L 9488,10012"/>
        <path fill="none" stroke="rgb(0,0,0)" d="M 9526,9974 L 9563,9937"/>
        <path fill="none" stroke="rgb(0,0,0)" d="M 9601,9899 L 9638,9862"/>
        <path fill="none" stroke="rgb(0,0,0)" d="M 9676,9824 L 9713,9787"/>
        <path fill="none" stroke="rgb(0,0,0)" d="M 9751,9749 L 9788,9712"/>
        <path fill="none" stroke="rgb(0,0,0)" d="M 9826,9674 L 9863,9637"/>
        <path fill="none" stroke="rgb(0,0,0)" d="M 9901,9599 L 9939,9561"/>
        <path fill="none" stroke="rgb(0,0,0)" d="M 9976,9524 L 10014,9486"/>
        <path fill="none" stroke="rgb(0,0,0)" d="M 10051,9449 L 10089,9411"/>
        <path fill="none" stroke="rgb(0,0,0)" d="M 10126,9374 L 10164,9336"/>
        <path fill="none" stroke="rgb(0,0,0)" d="M 10201,9299 L 10239,9261"/>
        <path fill="none" stroke="rgb(0,0,0)" d="M 10276,9224 L 10314,9186"/>
        <path fill="none" stroke="rgb(0,0,0)" d="M 10351,9149 L 10389,9111"/>
        <path fill="none" stroke="rgb(0,0,0)" d="M 10427,9073 L 10464,9036"/>
        <path fill="none" stroke="rgb(0,0,0)" d="M 10502,8998 L 10539,8961"/>
        <path fill="none" stroke="rgb(0,0,0)" d="M 10577,8923 L 10614,8886"/>
        <path fill="none" stroke="rgb(0,0,0)" d="M 10652,8848 L 10689,8811"/>
        <path fill="none" stroke="rgb(0,0,0)" d="M 10727,8773 L 10764,8736"/>
        <path fill="none" stroke="rgb(0,0,0)" d="M 10802,8698 L 10840,8660"/>
        <path fill="none" stroke="rgb(0,0,0)" d="M 10877,8623 L 10915,8585"/>
        <path fill="none" stroke="rgb(0,0,0)" d="M 10952,8548 L 10990,8510"/>
        <path fill="none" stroke="rgb(0,0,0)" d="M 11027,8473 L 11065,8435"/>
        <path fill="none" stroke="rgb(0,0,0)" d="M 11102,8398 L 11140,8360"/>
        <path fill="none" stroke="rgb(0,0,0)" d="M 11177,8323 L 11215,8285"/>
        <path fill="none" stroke="rgb(0,0,0)" d="M 11252,8248 L 11290,8210"/>
        <path fill="none" stroke="rgb(0,0,0)" d="M 11328,8172 L 11365,8135"/>
        <path fill="none" stroke="rgb(0,0,0)" d="M 11403,8097 L 11440,8060"/>
        <path fill="none" stroke="rgb(0,0,0)" d="M 11478,8022 L 11515,7985"/>
        <path fill="none" stroke="rgb(0,0,0)" d="M 11553,7947 L 11590,7910"/>
        <path fill="none" stroke="rgb(0,0,0)" d="M 11628,7872 L 11665,7835"/>
        <path fill="none" stroke="rgb(0,0,0)" d="M 11703,7797 L 11741,7759"/>
        <path fill="none" stroke="rgb(0,0,0)" d="M 11778,7722 L 11816,7684"/>
        <path fill="none" stroke="rgb(0,0,0)" d="M 11853,7647 L 11891,7609"/>
        <path fill="none" stroke="rgb(0,0,0)" d="M 11928,7572 L 11966,7534"/>
        <path fill="none" stroke="rgb(0,0,0)" d="M 12003,7497 L 12041,7459"/>
        <path fill="none" stroke="rgb(0,0,0)" d="M 12078,7422 L 12100,7400"/>
       </g>
      </g>
      <g class="com.sun.star.drawing.CustomShape">
       <g id="id13">
        <rect class="BoundingBox" stroke="none" fill="none" x="8900" y="6200" width="6201" height="6401"/>
       </g>
      </g>
     </g>
    </g>
   </g>
  </g>
 </g>
</svg>